<svg xmlns="http://www.w3.org/2000/svg" viewBox="0 0 64 64">
  <defs>
    <linearGradient id="dodgeGrad" x1="0%" y1="0%" x2="100%" y2="100%">
      <stop offset="0%" style="stop-color:#E6E6FA"/>
      <stop offset="50%" style="stop-color:#DDA0DD"/>
      <stop offset="100%" style="stop-color:#9370DB"/>
    </linearGradient>
  </defs>
  <!-- 闪避轨迹 - 虚线表示 -->
  <path d="M16 16 Q32 20, 48 16" stroke="url(#dodgeGrad)" stroke-width="3" fill="none" stroke-linecap="round" stroke-dasharray="6,4"/>
  <path d="M12 32 Q32 38, 52 32" stroke="url(#dodgeGrad)" stroke-width="3" fill="none" stroke-linecap="round" stroke-dasharray="6,4"/>
  <path d="M16 48 Q32 52, 48 48" stroke="url(#dodgeGrad)" stroke-width="3" fill="none" stroke-linecap="round" stroke-dasharray="6,4"/>
  <!-- 星星点缀 -->
  <polygon points="24,24 25,27 28,27 26,29 27,32 24,30 21,32 22,29 20,27 23,27" fill="#FFD700"/>
  <polygon points="40,40 41,43 44,43 42,45 43,48 40,46 37,48 38,45 36,43 39,43" fill="#FFD700"/>
</svg>
